<mxfile host="app.diagrams.net" modified="2023-09-08T06:26:57.017Z" agent="Mozilla/5.0 (Windows NT 10.0; Win64; x64) AppleWebKit/537.36 (KHTML, like Gecko) Chrome/116.0.0.0 Safari/537.36" etag="YQspdg29DDVo4_n78pKC" version="21.7.2" type="github">
  <diagram name="Страница — 1" id="0Vf-Q7PDjt9Xlpkar4Qm">
    <mxGraphModel dx="940" dy="422" grid="1" gridSize="10" guides="1" tooltips="1" connect="1" arrows="1" fold="1" page="1" pageScale="1" pageWidth="827" pageHeight="1169" math="0" shadow="0">
      <root>
        <mxCell id="0" />
        <mxCell id="1" parent="0" />
        <mxCell id="A3GNWENZTj7qenz54R3v-1" value="Admin" style="shape=umlActor;verticalLabelPosition=bottom;verticalAlign=top;html=1;" vertex="1" parent="1">
          <mxGeometry x="350" y="260" width="30" height="60" as="geometry" />
        </mxCell>
        <mxCell id="A3GNWENZTj7qenz54R3v-2" value="User" style="shape=umlActor;verticalLabelPosition=bottom;verticalAlign=top;html=1;" vertex="1" parent="1">
          <mxGeometry x="350" y="90" width="30" height="60" as="geometry" />
        </mxCell>
        <mxCell id="A3GNWENZTj7qenz54R3v-5" value="" style="endArrow=block;endSize=16;endFill=0;html=1;rounded=0;entryX=0.533;entryY=0.789;entryDx=0;entryDy=0;entryPerimeter=0;" edge="1" parent="1">
          <mxGeometry width="160" relative="1" as="geometry">
            <mxPoint x="364.5" y="260" as="sourcePoint" />
            <mxPoint x="365.49" y="137.34000000000003" as="targetPoint" />
          </mxGeometry>
        </mxCell>
        <mxCell id="A3GNWENZTj7qenz54R3v-6" value="Use Case" style="ellipse;whiteSpace=wrap;html=1;" vertex="1" parent="1">
          <mxGeometry x="140" y="85" width="140" height="70" as="geometry" />
        </mxCell>
        <mxCell id="A3GNWENZTj7qenz54R3v-7" value="Use Case" style="ellipse;whiteSpace=wrap;html=1;" vertex="1" parent="1">
          <mxGeometry x="440" y="85" width="140" height="70" as="geometry" />
        </mxCell>
        <mxCell id="A3GNWENZTj7qenz54R3v-8" value="Use Case" style="ellipse;whiteSpace=wrap;html=1;" vertex="1" parent="1">
          <mxGeometry x="140" y="250" width="140" height="70" as="geometry" />
        </mxCell>
        <mxCell id="A3GNWENZTj7qenz54R3v-9" value="Use Case" style="ellipse;whiteSpace=wrap;html=1;" vertex="1" parent="1">
          <mxGeometry x="440" y="255" width="140" height="70" as="geometry" />
        </mxCell>
        <mxCell id="A3GNWENZTj7qenz54R3v-10" value="Use Case" style="ellipse;whiteSpace=wrap;html=1;" vertex="1" parent="1">
          <mxGeometry x="440" y="380" width="140" height="70" as="geometry" />
        </mxCell>
        <mxCell id="A3GNWENZTj7qenz54R3v-11" value="Use Case" style="ellipse;whiteSpace=wrap;html=1;" vertex="1" parent="1">
          <mxGeometry x="140" y="380" width="140" height="70" as="geometry" />
        </mxCell>
        <mxCell id="A3GNWENZTj7qenz54R3v-13" value="" style="endArrow=none;html=1;rounded=0;exitX=0.5;exitY=0.5;exitDx=0;exitDy=0;exitPerimeter=0;" edge="1" parent="1" source="A3GNWENZTj7qenz54R3v-1">
          <mxGeometry width="50" height="50" relative="1" as="geometry">
            <mxPoint x="380" y="340" as="sourcePoint" />
            <mxPoint x="440" y="290" as="targetPoint" />
          </mxGeometry>
        </mxCell>
        <mxCell id="A3GNWENZTj7qenz54R3v-14" value="" style="endArrow=none;html=1;rounded=0;entryX=0.5;entryY=0.5;entryDx=0;entryDy=0;entryPerimeter=0;" edge="1" parent="1" target="A3GNWENZTj7qenz54R3v-1">
          <mxGeometry width="50" height="50" relative="1" as="geometry">
            <mxPoint x="280" y="290" as="sourcePoint" />
            <mxPoint x="350.71067811865476" y="285" as="targetPoint" />
          </mxGeometry>
        </mxCell>
        <mxCell id="A3GNWENZTj7qenz54R3v-15" value="" style="endArrow=none;html=1;rounded=0;exitX=1;exitY=0.5;exitDx=0;exitDy=0;" edge="1" parent="1" source="A3GNWENZTj7qenz54R3v-11">
          <mxGeometry width="50" height="50" relative="1" as="geometry">
            <mxPoint x="320" y="420" as="sourcePoint" />
            <mxPoint x="320" y="290" as="targetPoint" />
            <Array as="points">
              <mxPoint x="320" y="415" />
            </Array>
          </mxGeometry>
        </mxCell>
        <mxCell id="A3GNWENZTj7qenz54R3v-16" value="" style="endArrow=none;html=1;rounded=0;exitX=0;exitY=0.5;exitDx=0;exitDy=0;" edge="1" parent="1" source="A3GNWENZTj7qenz54R3v-10">
          <mxGeometry width="50" height="50" relative="1" as="geometry">
            <mxPoint x="370" y="400" as="sourcePoint" />
            <mxPoint x="400" y="290" as="targetPoint" />
            <Array as="points">
              <mxPoint x="400" y="415" />
            </Array>
          </mxGeometry>
        </mxCell>
        <mxCell id="A3GNWENZTj7qenz54R3v-18" value="" style="endArrow=none;html=1;rounded=0;entryX=0.5;entryY=0.5;entryDx=0;entryDy=0;entryPerimeter=0;" edge="1" parent="1" source="A3GNWENZTj7qenz54R3v-6" target="A3GNWENZTj7qenz54R3v-2">
          <mxGeometry width="50" height="50" relative="1" as="geometry">
            <mxPoint x="280" y="170" as="sourcePoint" />
            <mxPoint x="350.71067811865476" y="120" as="targetPoint" />
          </mxGeometry>
        </mxCell>
        <mxCell id="A3GNWENZTj7qenz54R3v-19" value="" style="endArrow=none;html=1;rounded=0;exitX=0.5;exitY=0.5;exitDx=0;exitDy=0;exitPerimeter=0;" edge="1" parent="1" source="A3GNWENZTj7qenz54R3v-2">
          <mxGeometry width="50" height="50" relative="1" as="geometry">
            <mxPoint x="390" y="170" as="sourcePoint" />
            <mxPoint x="440" y="120" as="targetPoint" />
          </mxGeometry>
        </mxCell>
      </root>
    </mxGraphModel>
  </diagram>
</mxfile>
